<svg xmlns="http://www.w3.org/2000/svg" width="960" height="520" font-family="'Segoe UI', system-ui, sans-serif" viewBox="0 0 960 520"><rect width="960" height="520" fill="#FAFAF8" rx="12"/><text x="480" y="42" fill="#0B1F3A" font-size="20" font-weight="700" letter-spacing="-.3" text-anchor="middle">InfiniPol — Local-First Architecture</text><text x="480" y="64" fill="#6B7280" font-size="13" text-anchor="middle">All inference and data stays on-device. No cloud, no telemetry.</text><rect width="160" height="80" x="40" y="90" fill="#FFF" stroke="#E5E7EB" stroke-width="1.5" rx="10"/><text x="120" y="124" font-size="22" text-anchor="middle">🌐</text><text x="120" y="146" fill="#0B1F3A" font-size="13" font-weight="600" text-anchor="middle">Policy Analyst</text><text x="120" y="162" fill="#6B7280" font-size="11" text-anchor="middle">Browser</text><line x1="200" x2="268" y1="130" y2="130" stroke="#D4A24C" stroke-width="2" marker-end="url(#arrow)"/><text x="234" y="122" fill="#6B7280" font-size="10" text-anchor="middle">HTTP</text><rect width="200" height="80" x="268" y="90" fill="#EEF2FF" stroke="#A5B4FC" stroke-width="1.5" rx="10"/><text x="368" y="118" fill="#3730A3" font-size="12" font-weight="700" letter-spacing=".3" text-anchor="middle">FRONTEND</text><text x="368" y="136" fill="#0B1F3A" font-size="11" text-anchor="middle">React + Vite + Mantine</text><text x="368" y="152" fill="#6B7280" font-size="10" text-anchor="middle">TanStack Query · Polling</text><text x="368" y="164" fill="#6B7280" font-size="10" text-anchor="middle">localhost:5173</text><line x1="468" x2="536" y1="130" y2="130" stroke="#D4A24C" stroke-width="2" marker-end="url(#arrow)"/><text x="502" y="122" fill="#6B7280" font-size="10" text-anchor="middle">REST/JSON</text><rect width="200" height="80" x="536" y="90" fill="#F0FDF4" stroke="#6EE7B7" stroke-width="1.5" rx="10"/><text x="636" y="118" fill="#2D6A4F" font-size="12" font-weight="700" letter-spacing=".3" text-anchor="middle">BACKEND API</text><text x="636" y="136" fill="#0B1F3A" font-size="11" text-anchor="middle">FastAPI + Uvicorn</text><text x="636" y="152" fill="#6B7280" font-size="10" text-anchor="middle">Simulation worker · Async</text><text x="636" y="164" fill="#6B7280" font-size="10" text-anchor="middle">localhost:8000</text><line x1="636" x2="636" y1="170" y2="250" stroke="#E5E7EB" stroke-dasharray="4 3" stroke-width="1.5"/><line x1="200" x2="880" y1="280" y2="280" stroke="#E5E7EB" stroke-dasharray="4 3" stroke-width="1.5"/><line x1="270" x2="270" y1="250" y2="290" stroke="#E5E7EB" stroke-dasharray="4 3" stroke-width="1.5"/><line x1="450" x2="450" y1="250" y2="290" stroke="#E5E7EB" stroke-dasharray="4 3" stroke-width="1.5"/><line x1="636" x2="636" y1="250" y2="290" stroke="#E5E7EB" stroke-dasharray="4 3" stroke-width="1.5"/><line x1="820" x2="820" y1="250" y2="290" stroke="#E5E7EB" stroke-dasharray="4 3" stroke-width="1.5"/><rect width="224" height="100" x="158" y="290" fill="#0B1F3A" stroke="#0B1F3A" stroke-width="1.5" rx="10"/><text x="270" y="320" font-size="22" text-anchor="middle">🦙</text><text x="270" y="342" fill="#FFF" font-size="13" font-weight="700" text-anchor="middle">Ollama</text><text x="270" y="358" fill="#94A3B8" font-size="11" text-anchor="middle">gemma4:e4b · Local LLM</text><text x="270" y="374" fill="#D4A24C" font-size="10" text-anchor="middle">localhost:11434</text><rect width="224" height="100" x="338" y="290" fill="#FFF" stroke="#E5E7EB" stroke-width="1.5" rx="10"/><text x="450" y="320" font-size="22" text-anchor="middle">🗄️</text><text x="450" y="342" fill="#0B1F3A" font-size="13" font-weight="700" text-anchor="middle">SQLite (WAL)</text><text x="450" y="358" fill="#6B7280" font-size="11" text-anchor="middle">Simulation lifecycle</text><text x="450" y="374" fill="#6B7280" font-size="10" text-anchor="middle">sims.db · busy_timeout 30s</text><rect width="224" height="100" x="524" y="290" fill="#FFF" stroke="#E5E7EB" stroke-width="1.5" rx="10"/><text x="636" y="320" font-size="22" text-anchor="middle">👥</text><text x="636" y="342" fill="#0B1F3A" font-size="13" font-weight="700" text-anchor="middle">Nemotron Personas</text><text x="636" y="358" fill="#6B7280" font-size="11" text-anchor="middle">1M synthetic US personas</text><text x="636" y="374" fill="#6B7280" font-size="10" text-anchor="middle">Local JSONL · mtime-cached</text><rect width="224" height="100" x="708" y="290" fill="#FFF" stroke="#E5E7EB" stroke-width="1.5" rx="10"/><text x="820" y="320" font-size="22" text-anchor="middle">📄</text><text x="820" y="342" fill="#0B1F3A" font-size="13" font-weight="700" text-anchor="middle">Run Artifacts</text><text x="820" y="358" fill="#6B7280" font-size="11" text-anchor="middle">Raw responses · JSON</text><text x="820" y="374" fill="#6B7280" font-size="10" text-anchor="middle">CSV export on demand</text><rect width="880" height="68" x="40" y="430" fill="#F3F4F6" stroke="#E5E7EB" stroke-width="1" rx="10"/><text x="480" y="452" fill="#6B7280" font-size="11" font-weight="700" letter-spacing="1" text-anchor="middle">KEY FLOWS</text><rect width="160" height="24" x="60" y="460" fill="#FFF" stroke="#E5E7EB" stroke-width="1" rx="12"/><text x="140" y="476" fill="#0B1F3A" font-size="10" text-anchor="middle">📝 Create &amp; Configure</text><rect width="160" height="24" x="232" y="460" fill="#FFF" stroke="#E5E7EB" stroke-width="1" rx="12"/><text x="312" y="476" fill="#0B1F3A" font-size="10" text-anchor="middle">⚡ Run Simulation</text><rect width="160" height="24" x="404" y="460" fill="#FFF" stroke="#E5E7EB" stroke-width="1" rx="12"/><text x="484" y="476" fill="#0B1F3A" font-size="10" text-anchor="middle">📊 Inspect Results</text><rect width="160" height="24" x="576" y="460" fill="#FFF" stroke="#E5E7EB" stroke-width="1" rx="12"/><text x="656" y="476" fill="#0B1F3A" font-size="10" text-anchor="middle">🔁 Challenge &amp; Refine</text><rect width="152" height="24" x="748" y="460" fill="#FFF" stroke="#E5E7EB" stroke-width="1" rx="12"/><text x="824" y="476" fill="#0B1F3A" font-size="10" text-anchor="middle">⬇️ Export CSV</text><defs><marker id="arrow" markerHeight="8" markerWidth="8" orient="auto" refX="6" refY="3"><path fill="#D4A24C" d="M0,0 L0,6 L8,3 z"/></marker></defs></svg>